<svg xmlns="http://www.w3.org/2000/svg" viewBox="0 0 256.02 211.02"><defs><style>.cls-1{fill:#9c9c9c;}</style></defs><g id="Layer_2" data-name="Layer 2"><g id="Layer_1-2" data-name="Layer 1"><path class="cls-1" d="M67,134.13s3-14,21-21c0,0,6-45,59-49,0,0,31-3,51,23,0,0,34.5-2.5,49.5,27.5,0,0,10-21-4-36,0,0-10-12-26-11,0,0,3-54-56-67,0,0-43-8-69,33,0,0-62-9-68,50,0,0-25,1.65-24.5,25.85S28.9,134.13,28.9,134.13Z"/><path class="cls-1" d="M114.51,172.63l40-73h12.91v49.76l36.09.24,7,10-6.7,13h38.94s13.76-3.3,13.26-18.15-17.5-16.85-17.5-16.85,3-37-48-36c0,0-17-32-59-20,0,0-27.48,9.31-29.24,44.15,0,0-24.76,1.85-23.76,27.85C78.51,153.63,78.51,177.63,114.51,172.63Z"/><polygon class="cls-1" points="151.51 135.63 126.51 181.63 167.25 181.63 167.25 211.02 190.51 164.63 151.51 164.63 151.51 135.63"/></g></g></svg>